<svg width="28" height="112" viewBox="0 0 28 112" xmlns="http://www.w3.org/2000/svg" xmlns:sketch="http://www.bohemiancoding.com/sketch/ns"><title>icons-social-sprite</title><desc>Created with Sketch Beta.</desc><g sketch:type="MSPage" fill="#363535"><path d="M21.157 37.643l.011.477c0 4.88-3.714 10.507-10.507 10.507-2.086 0-4.027-.611-5.661-1.659.289.034.583.052.881.052 1.73 0 3.322-.591 4.586-1.581-1.616-.029-2.98-1.098-3.45-2.564.226.043.457.066.695.066.337 0 .663-.045.973-.13-1.689-.339-2.962-1.832-2.962-3.621v-.047c.498.277 1.068.443 1.673.462-.991-.662-1.643-1.793-1.643-3.074 0-.676.182-1.311.5-1.856 1.822 2.234 4.542 3.704 7.612 3.859-.063-.27-.096-.552-.096-.842 0-2.04 1.654-3.693 3.693-3.693 1.062 0 2.022.448 2.695 1.166.841-.166 1.632-.473 2.345-.896-.276.862-.861 1.586-1.624 2.043.747-.089 1.459-.288 2.121-.582-.495.741-1.121 1.391-1.843 1.912zM17.645 10.953l-.215 2.693h-2.87v9.355h-3.625v-9.355h-1.935v-2.693h1.935v-1.81c0-.796.021-2.027.623-2.789.634-.806 1.505-1.354 3.002-1.354 2.44 0 3.468.334 3.468.334l-.484 2.758s-.806-.224-1.558-.224-1.426.258-1.426.983v2.102h3.085zM22.822 68.462c.115.614.178 1.257.178 1.929 0 5.246-3.512 8.977-8.816 8.977-5.074 0-9.184-4.11-9.184-9.184 0-5.074 4.11-9.184 9.184-9.184 2.48 0 4.552.913 6.142 2.393l-2.589 2.589v-.006c-.964-.918-2.187-1.389-3.553-1.389-3.031 0-5.493 2.56-5.493 5.591 0 3.03 2.462 5.596 5.493 5.596 2.749 0 4.62-1.573 5.006-3.731h-5.006v-3.582h8.638zM14 98.333c-1.301 0-8-5.406-8-5.333v-.667c0-.736.597-1.333 1.333-1.333h13.333c.737 0 1.333.597 1.333 1.333v.667c-.011 0-6.637 5.333-8 5.333zm0 2c1.425-.167 7.989-5.333 8-5.333v8c0 .736-.597 1.333-1.333 1.333h-13.333c-.736 0-1.333-.597-1.333-1.333v-8c.01 0 6.699 5.167 8 5.333z" sketch:type="MSShapeGroup"/></g></svg>