<svg id="Layer_1" data-name="Layer 1" xmlns="http://www.w3.org/2000/svg" xmlns:xlink="http://www.w3.org/1999/xlink" width="150" height="150" viewBox="0 0 150 150"><defs><clipPath id="clip-path"><path d="M115.84,93.7H96.17C95.52,93.7,95,92.92,95,92s.52-1.74,1.17-1.74h19.67c.65,0,1.17.78,1.17,1.74s-.52,1.74-1.17,1.74" fill="#fff" clip-rule="evenodd"/></clipPath><clipPath id="clip-path-2"><path d="M116.25,103.58H72.87a1.74,1.74,0,1,1,0-3.48h43.39a1.74,1.74,0,1,1,0,3.48" fill="#fff" clip-rule="evenodd"/></clipPath><clipPath id="clip-path-3"><rect x="43.14" y="48.71" width="16.86" height="16.78" fill="#fff"/></clipPath><clipPath id="clip-path-4"><rect x="43.14" y="88.22" width="16.86" height="16.78" fill="#fff"/></clipPath></defs><title>icon-step-01</title><path d="M83.61,144.45a69.5,69.5,0,1,0-18.22,0" fill="#33335f"/><path d="M115.84,93.7H96.17C95.52,93.7,95,92.92,95,92s.52-1.74,1.17-1.74h19.67c.65,0,1.17.78,1.17,1.74s-.52,1.74-1.17,1.74" fill="#fff" fill-rule="evenodd"/><g clip-path="url(#clip-path)"><rect x="89.49" y="81.99" width="33.02" height="19.94" fill="#fff"/></g><path d="M116.25,103.58H72.87a1.74,1.74,0,1,1,0-3.48h43.39a1.74,1.74,0,1,1,0,3.48" fill="#fff" fill-rule="evenodd"/><g clip-path="url(#clip-path-2)"><rect x="62.89" y="91.86" width="63.34" height="19.94" fill="#fff"/></g><rect x="43.14" y="48.71" width="16.86" height="16.78" fill="#fff"/><g clip-path="url(#clip-path-3)"><rect x="34.91" y="40.48" width="33.32" height="33.24" fill="#fff"/></g><rect x="43.14" y="88.22" width="16.86" height="16.78" fill="#fff"/><g clip-path="url(#clip-path-4)"><rect x="34.91" y="79.99" width="33.32" height="33.24" fill="#fff"/></g><path d="M68.12,75.07l2.45-2.37,4.91,4.73L73,79.81Z" fill="#fba100" stroke="#fba100" stroke-miterlimit="10" stroke-width="2"/><path d="M90.2,89.27,85.29,94,71.78,81l4.92-4.73,13.49,13m-13.49-13L71.78,81M52.32,81h-.38a23.76,23.76,0,0,1-11.82-3c-7.84-4.4-12.76-12.35-12.43-21.18A23.58,23.58,0,0,1,47.17,34.66a24,24,0,0,1,22.2,6.62,21.87,21.87,0,0,1,6.86,18C75.34,71,64.43,80.7,52.32,81ZM72,57.64c.31-10.56-9.12-19.33-19.85-19.4C41,38.16,32,46.77,31.89,57.47S40.73,76.9,51.83,77,72.3,68.07,72,57.64Z" fill="#fba100" stroke="#fba100" stroke-miterlimit="10" stroke-width="2"/><polygon points="87.85 51.35 89.78 55.51 94.1 56.18 90.97 59.42 91.71 64 87.85 61.84 83.98 64 84.72 59.42 81.59 56.18 85.91 55.51 87.85 51.35" fill="#fba100" stroke="#fba100" stroke-miterlimit="10" stroke-width="2"/><path d="M94.1,56.18l-4.32-.67-1.93-4.16-1.93,4.16-4.32.67,3.13,3.24L84,64l3.87-2.16L91.71,64,91,59.42Zm-5.69,4.65-.56-.31-.56.31-1.79,1,.36-2.23.09-.57-.4-.41L84,57l2.13-.33.61-.09L87,56l.89-1.92L88.74,56l.26.56.61.09,2.13.33-1.59,1.65-.4.41.09.57.36,2.23Z" fill="#fba100" stroke="#fba100" stroke-miterlimit="10" stroke-width="2"/><polygon points="105.55 51.35 107.48 55.51 111.8 56.18 108.67 59.42 109.41 64 105.55 61.84 101.68 64 102.42 59.42 99.29 56.18 103.61 55.51 105.55 51.35" fill="#fba100" stroke="#fba100" stroke-miterlimit="10" stroke-width="2"/><path d="M111.8,56.18l-4.32-.67-1.93-4.16-1.93,4.16-4.32.67,3.13,3.24L101.68,64l3.87-2.16L109.41,64l-.74-4.58Zm-5.69,4.65-.56-.31-.56.31-1.79,1,.36-2.23.09-.57-.4-.41L101.66,57l2.13-.33.61-.09.26-.56.89-1.92.89,1.92.26.56.61.09,2.13.33-1.59,1.65-.4.41.09.57.36,2.23Z" fill="#fba100" stroke="#fba100" stroke-miterlimit="10" stroke-width="2"/></svg>