<svg id="Layer_1" data-name="Layer 1" xmlns="http://www.w3.org/2000/svg" xmlns:xlink="http://www.w3.org/1999/xlink" width="150" height="150" viewBox="0 0 150 150"><defs><clipPath id="clip-path"><path d="M73,70.14c8.39,0,16.77,0,25.16,0,1.41,0,1.92.37,1.8,1.8a38.62,38.62,0,0,0,0,4.17c0,.82-.31,1.2-1.13,1.13-.27,0-.53,0-.8,0-16.67,0-33.33,0-50,0-1.54,0-2.12-.4-2-2a19.44,19.44,0,0,0,0-3.52c-.1-1.27.35-1.65,1.62-1.64,7.69.05,15.38,0,23.07,0Z" fill="#fff" clip-rule="evenodd"/></clipPath><clipPath id="clip-path-2"><path d="M73.78,54.35c8.39,0,16.77,0,25.16,0,1.41,0,1.92.37,1.8,1.8a38.62,38.62,0,0,0,0,4.17c0,.82-.31,1.2-1.13,1.13-.27,0-.53,0-.8,0-16.67,0-33.33,0-50,0-1.54,0-2.12-.4-2-2a19.44,19.44,0,0,0,0-3.52c-.1-1.27.35-1.65,1.62-1.64,7.69.05,15.38,0,23.07,0Z" fill="#fff" clip-rule="evenodd"/></clipPath><clipPath id="clip-path-3"><path d="M72.95,92.17c-8.39,0-16.77,0-25.16,0-1.42,0-1.91-.38-1.79-1.8a38.54,38.54,0,0,0,0-4.17c0-.82.32-1.19,1.14-1.13.27,0,.53,0,.8,0,16.67,0,33.33,0,50,0,1.55,0,2.11.42,2,2a19.18,19.18,0,0,0,0,3.52c.11,1.28-.37,1.64-1.63,1.63-8.12-.05-16.24,0-24.36,0Z" fill="#fff" clip-rule="evenodd"/></clipPath><clipPath id="clip-path-4"><path d="M73.11,107.18c-8.55,0-17.09,0-25.64,0-1.2,0-1.57-.28-1.48-1.48a31.62,31.62,0,0,0,0-4.49c-.07-1,.32-1.21,1.26-1.21q25.72,0,51.43,0c1,0,1.29.25,1.24,1.24a37.67,37.67,0,0,0,0,4.65c.08,1.12-.37,1.28-1.35,1.28-8.49,0-17,0-25.48,0" fill="#fff" clip-rule="evenodd"/></clipPath><clipPath id="clip-path-5"><rect x="59" y="101.68" width="27" height="3.32" fill="#fba100"/></clipPath><clipPath id="clip-path-6"><path d="M134.23,61.94a2.84,2.84,0,0,1-.68,1.8q-6.49,9.15-13,18.3c-1,1.35-2.09,1.64-3.12.91s-1.12-1.89-.17-3.24q6.52-9.23,13.07-18.43a2.08,2.08,0,0,1,2.46-1,1.87,1.87,0,0,1,1.44,1.69" fill="#fba100" clip-rule="evenodd"/></clipPath><clipPath id="clip-path-7"><path d="M92.81,104.91a2,2,0,0,1-1.71-3,9.18,9.18,0,0,1,1.09-1.58c.85-1.06,1.51-2.07,1.07-3.6-.3-1.07.47-2,1.1-2.91L117.74,60.9c1.58-2.22,3.19-4.42,4.72-6.68a4.45,4.45,0,0,1,3.06-2.11,3.51,3.51,0,0,0,1.57-.7,1.87,1.87,0,0,1,2.38,0,1.79,1.79,0,0,1,.66,2.26c-.1.25-.31.55-.24.75.86,2.69-.87,4.45-2.22,6.35Q114.3,79.61,100.93,98.42a4.72,4.72,0,0,1-3.48,2.29c-1.24.12-1.39,1.35-2,2.07s-1.18,2.1-2.61,2.13" fill="#fba100" clip-rule="evenodd"/></clipPath></defs><title>icon-step-01</title><path d="M85.61,146.45a69.5,69.5,0,1,0-18.22,0" fill="#33335f"/><path d="M73,70.14c8.39,0,16.77,0,25.16,0,1.41,0,1.92.37,1.8,1.8a38.62,38.62,0,0,0,0,4.17c0,.82-.31,1.2-1.13,1.13-.27,0-.53,0-.8,0-16.67,0-33.33,0-50,0-1.54,0-2.12-.4-2-2a19.44,19.44,0,0,0,0-3.52c-.1-1.27.35-1.65,1.62-1.64,7.69.05,15.38,0,23.07,0Z" fill="#fff" fill-rule="evenodd"/><g clip-path="url(#clip-path)"><rect x="41.83" y="65.96" width="62.26" height="15.44" fill="#fff"/></g><path d="M73.78,54.35c8.39,0,16.77,0,25.16,0,1.41,0,1.92.37,1.8,1.8a38.62,38.62,0,0,0,0,4.17c0,.82-.31,1.2-1.13,1.13-.27,0-.53,0-.8,0-16.67,0-33.33,0-50,0-1.54,0-2.12-.4-2-2a19.44,19.44,0,0,0,0-3.52c-.1-1.27.35-1.65,1.62-1.64,7.69.05,15.38,0,23.07,0Z" fill="#fff" fill-rule="evenodd"/><g clip-path="url(#clip-path-2)"><rect x="42.66" y="50.17" width="62.26" height="15.44" fill="#fff"/></g><path d="M72.95,92.17c-8.39,0-16.77,0-25.16,0-1.42,0-1.91-.38-1.79-1.8a38.54,38.54,0,0,0,0-4.17c0-.82.32-1.19,1.14-1.13.27,0,.53,0,.8,0,16.67,0,33.33,0,50,0,1.55,0,2.11.42,2,2a19.18,19.18,0,0,0,0,3.52c.11,1.28-.37,1.64-1.63,1.63-8.12-.05-16.24,0-24.36,0Z" fill="#fff" fill-rule="evenodd"/><g clip-path="url(#clip-path-3)"><rect x="41.83" y="80.91" width="62.26" height="15.44" fill="#fff"/></g><path d="M73.11,107.18c-8.55,0-17.09,0-25.64,0-1.2,0-1.57-.28-1.48-1.48a31.62,31.62,0,0,0,0-4.49c-.07-1,.32-1.21,1.26-1.21q25.72,0,51.43,0c1,0,1.29.25,1.24,1.24a37.67,37.67,0,0,0,0,4.65c.08,1.12-.37,1.28-1.35,1.28-8.49,0-17,0-25.48,0" fill="#fff" fill-rule="evenodd"/><g clip-path="url(#clip-path-4)"><rect x="41.83" y="95.87" width="62.27" height="15.49" fill="#fff"/></g><rect x="59" y="101.68" width="27" height="3.32" fill="#fba100"/><g clip-path="url(#clip-path-5)"><rect x="56.05" y="97.53" width="32.89" height="11.63" fill="#fba100"/></g><path d="M134.23,61.94a2.84,2.84,0,0,1-.68,1.8q-6.49,9.15-13,18.3c-1,1.35-2.09,1.64-3.12.91s-1.12-1.89-.17-3.24q6.52-9.23,13.07-18.43a2.08,2.08,0,0,1,2.46-1,1.87,1.87,0,0,1,1.44,1.69" fill="#fba100" fill-rule="evenodd"/><g clip-path="url(#clip-path-6)"><rect x="112.45" y="55.99" width="25.93" height="31.51" fill="#fba100"/></g><path d="M92.81,104.91a2,2,0,0,1-1.71-3,9.18,9.18,0,0,1,1.09-1.58c.85-1.06,1.51-2.07,1.07-3.6-.3-1.07.47-2,1.1-2.91L117.74,60.9c1.58-2.22,3.19-4.42,4.72-6.68a4.45,4.45,0,0,1,3.06-2.11,3.51,3.51,0,0,0,1.57-.7,1.87,1.87,0,0,1,2.38,0,1.79,1.79,0,0,1,.66,2.26c-.1.25-.31.55-.24.75.86,2.69-.87,4.45-2.22,6.35Q114.3,79.61,100.93,98.42a4.72,4.72,0,0,1-3.48,2.29c-1.24.12-1.39,1.35-2,2.07s-1.18,2.1-2.61,2.13" fill="#fba100" fill-rule="evenodd"/><g clip-path="url(#clip-path-7)"><rect x="86.69" y="46.85" width="47.77" height="62.22" fill="#fba100"/></g></svg>