<svg id="Layer_1" data-name="Layer 1" xmlns="http://www.w3.org/2000/svg" width="150" height="150" viewBox="0 0 150 150"><title>icon-step-01</title><path d="M83.61,144.45a69.5,69.5,0,1,0-18.22,0" fill="#33335f"/><path d="M74.7,113.16,36.42,104.1a1.64,1.64,0,0,1,.76-3.19L75.46,110a1.64,1.64,0,1,1-.76,3.19Z" fill="#fff"/><path d="M65.88,101.53a1.64,1.64,0,0,1,.62-3.22c4.06.61,7.28-.23,9.87-2.58,7.52-6.83,6.69-23.87,6.68-24A1.58,1.58,0,0,1,84.45,70c.39-.08,5.25-1.25,6.57-11.66.4-3.14-.13-5.45-1.57-6.87-1.61-1.59-4.1-1.82-5.53-1.81C82.44,57,79.67,62.42,75.66,65.9a21.18,21.18,0,0,1-9.75,4.56l-.57.13a7,7,0,0,0-2.53,1.16l-5,3.67a1.64,1.64,0,0,1-1.35.28l-12.68-3a1.64,1.64,0,1,1,.76-3.19L56.5,72.34l4.38-3.22a10.24,10.24,0,0,1,3.71-1.71l.6-.14c4.49-1,12.83-3,15.76-19.46a1.64,1.64,0,0,1,1.37-1.33c.24,0,5.88-.84,9.43,2.63,2.22,2.17,3.08,5.41,2.54,9.63-.69,5.44-2.39,9.5-5,12.08a9.7,9.7,0,0,1-2.87,2c.06,4.35-.33,18.6-7.78,25.38-3.31,3-7.54,4.16-12.57,3.4Z" fill="#fff"/><path d="M99.53,87.31,89.25,84.87a7.21,7.21,0,0,1,3.32-14l10.28,2.43a7.21,7.21,0,0,1-3.32,14ZM91.81,74A3.93,3.93,0,0,0,90,81.68l10.28,2.43a3.93,3.93,0,0,0,1.81-7.65Z" fill="#fff"/><path d="M97,98.15,86.68,95.72a7.21,7.21,0,0,1,3.32-14l10.28,2.43a7.21,7.21,0,0,1-3.32,14ZM89.25,84.87a3.93,3.93,0,0,0-1.81,7.65L97.72,95a3.93,3.93,0,0,0,1.81-7.65Z" fill="#fff"/><path d="M93.33,108.74,83.05,106.3a7.21,7.21,0,0,1,3.32-14l10.28,2.43a7.21,7.21,0,0,1-3.32,14ZM85.62,95.46a3.93,3.93,0,0,0-1.81,7.65l10.28,2.43A3.93,3.93,0,0,0,95.9,97.9Z" fill="#fff"/><path d="M89.71,119.33l-10.28-2.43a7.21,7.21,0,0,1,3.32-14L93,105.3a7.21,7.21,0,0,1-3.32,14ZM82,106.05a3.93,3.93,0,0,0-1.81,7.65l10.28,2.43a3.93,3.93,0,0,0,1.81-7.65Z" fill="#fff"/><path d="M90.31,37.24a1.64,1.64,0,0,1-1.22-2l2.82-11.91a1.64,1.64,0,1,1,3.19.76L92.29,36A1.64,1.64,0,0,1,90.31,37.24Z" fill="#fba100"/><path d="M71.43,46.36l-11.7-2.77a1.64,1.64,0,1,1,.76-3.19l11.7,2.77a1.64,1.64,0,0,1-.76,3.19Z" fill="#fba100"/><path d="M114,56.42l-11.7-2.77a1.64,1.64,0,1,1,.76-3.19l11.7,2.77a1.64,1.64,0,1,1-.76,3.19Z" fill="#fba100"/><path d="M101.44,42.62a1.64,1.64,0,0,1-.48-3l10.36-6.4A1.64,1.64,0,0,1,113,36l-10.36,6.4A1.63,1.63,0,0,1,101.44,42.62Z" fill="#fba100"/><path d="M78.45,37.18a1.63,1.63,0,0,1-1-.73L71,26.08a1.64,1.64,0,0,1,2.79-1.72l6.4,10.36a1.64,1.64,0,0,1-1.77,2.46Z" fill="#fba100"/></svg>