<svg xmlns="http://www.w3.org/2000/svg" width="96" height="96" viewBox="0 0 96 96"><title>icon</title><g id="Your_Icons" data-name="Your Icons"><path d="M80.94,74.49c-8.76-2.84-14.75-6-19-10.63-4-4.32-6.65-10-8.73-17.9l1.3-.08a25.52,25.52,0,0,0,9.35-2.4C69.46,40.71,73,34.93,75.9,29.62a1.3,1.3,0,0,0-2.26-1.26C71,33.15,67.72,38.69,62.69,41.16c-5.44,2.68-14.22,2.71-20.28,2-5.8-.67-7.6-1-11.9-5.13a29.76,29.76,0,0,1-5.3-6.77,1.29,1.29,0,0,0-2.25,1.27A32,32,0,0,0,28.7,39.9c4.76,4.57,7,5.1,13.43,5.84a56.92,56.92,0,0,0,6.2.35c.75,0,1.47,0,2.2,0,2.2,8.62,5,14.78,9.48,19.54C64.64,70.58,71,74,80.16,76.94a1.29,1.29,0,1,0,.79-2.45ZM36.51,10.9a6.49,6.49,0,0,0-3.16-4.13,6.08,6.08,0,0,0-4.45-.58,6.4,6.4,0,0,0-4.05,3.27c-.33.61-.35.61-.94.22a6.5,6.5,0,0,0-5.12-.92,6.07,6.07,0,0,0-3.62,2.66,6.44,6.44,0,0,0-.79,5.14A12.48,12.48,0,0,0,19,23a61,61,0,0,0,7.75,5c2.06,1.2,3.31.9,4.5-1.17C33.52,22.91,37.93,16.42,36.51,10.9ZM29,25.58c-.43.74-.16.69-1,.22A58.25,58.25,0,0,1,20.65,21a10.16,10.16,0,0,1-3.79-5.12,4,4,0,0,1,.47-3.13,3.58,3.58,0,0,1,2.08-1.53,3.91,3.91,0,0,1,3.1.61c2.16,1.37,3.36,1.07,4.61-1.18a3.91,3.91,0,0,1,2.39-2A3.53,3.53,0,0,1,32.09,9,3.94,3.94,0,0,1,34,11.53C35.15,16,30.95,22.2,29,25.58Zm20.21.25a7.22,7.22,0,0,0-7.52,7.39,7.23,7.23,0,0,0,7.5,7.42,7.23,7.23,0,0,0,7.52-7.4A7.23,7.23,0,0,0,49.21,25.83Zm0,12.22a4.64,4.64,0,0,1-4.91-4.82,4.64,4.64,0,0,1,4.93-4.81,4.64,4.64,0,0,1,4.91,4.82A4.63,4.63,0,0,1,49.19,38.05ZM56,88.35c-2.55-8.63-4.43-15.29-1.35-24.08a1.29,1.29,0,0,0-2.44-.85c-3.3,9.4-1.43,16.41,1.29,25.65a1.32,1.32,0,0,0,1.61.89A1.29,1.29,0,0,0,56,88.35Z" fill="#33335f" stroke="#33335f" stroke-miterlimit="10"/><path d="M54.11,33.24a4.63,4.63,0,0,1-4.92,4.81,4.64,4.64,0,0,1-4.91-4.82,4.64,4.64,0,0,1,4.93-4.81A4.64,4.64,0,0,1,54.11,33.24Z" fill="#33335f" stroke="#33335f" stroke-miterlimit="10"/></g></svg>