<svg width="88" height="64" viewBox="0 0 88 64" xmlns="http://www.w3.org/2000/svg" xmlns:xlink="http://www.w3.org/1999/xlink"><title>icon-benefit-01</title><defs><path id="a" d="M0.61 0.64L70.77 0.64 70.77 34.33 0.61 34.33z"/><path id="c" d="M0.6 0.65L71.69 0.65 71.69 34.34 0.6 34.34z"/><path d="M63.93 14.87a15.22 15.22 0 0 1-5.08-.74h-.21C48.83 16.54 36.36 3.26 20.34.38 12.64 1 0 7 0 7v32.32c4.86-1.82 11-3.81 14.43-3.81h1a15.62 15.62 0 0 1 2.57-.24 26.65 26.65 0 0 1 6.66.92c11.43 1.5 23.4 10.71 33.34 13.5h.5a10.56 10.56 0 0 0 5.46-3.17l-.03-31.65z" id="e"/><path d="M55.81 49.54c-4.27-1-8.87-3.4-13.73-6-6.82-3.54-13.88-7.23-20.53-7.23-5.53 0-19.33 6.21-19.47 6.27a1 1 0 0 1-1.4-.9V8a1 1 0 0 1 .56-.89C1.78 6.85 14.56.65 21.55.65c9.28 0 17.25 4.4 24.29 8.28 8.39 4.63 15 8.28 20.37 2.48a1 1 0 0 1 1.72.67v33.69a1 1 0 0 1-.26.67A10.57 10.57 0 0 1 59.53 50a16.56 16.56 0 0 1-3.72-.46zm-12.83-7.7c9.33 4.89 17.4 9.13 22.94 3.52V14.31a10.46 10.46 0 0 1-9 1.76c-3.72-.8-7.78-3-12.07-5.41-6.83-3.77-14.57-8-23.34-8-5.75 0-16.35 4.81-18.88 6v31.51c3.78-1.62 13.915-5.84 18.92-5.83 7.12-.01 14.4 3.81 21.43 7.5z" id="g"/></defs><g transform="translate(1 1)" fill="none" fill-rule="evenodd"><g transform="translate(13 26)"><mask id="b" fill="#fff"><use xlink:href="#a"/></mask><path fill="#FFF" fill-rule="nonzero" mask="url(#b)" d="M-1.31 -1.29L72.7 -1.29 72.7 36.26 -1.31 36.26z"/></g><path d="M84.33 61.36H13.62a1 1 0 0 1-1-1V26.67a1 1 0 0 1 1-1h70.71a1 1 0 0 1 1 1v33.69a1 1 0 0 1-1 1zm-69.72-2h68.73v-31.7H14.61v31.7z" stroke="#33335F" stroke-width="2"/><g transform="translate(7 20)"><mask id="d" fill="#fff"><use xlink:href="#c"/></mask><path fill="#FFF" fill-rule="nonzero" mask="url(#d)" d="M2.53 -1.27L73.62 -1.27 73.62 36.28 2.53 36.28z"/></g><path d="M78.55 55.19H7.84a1 1 0 0 1-1-1V20.51a1 1 0 0 1 1-1h70.71a1 1 0 0 1 1 1V54.2a1 1 0 0 1-1 .99zm-69.72-2h68.73V21.5H8.83v31.69z" stroke="#33335F" stroke-width="2"/><g transform="translate(3 2)"><mask id="f" fill="#fff"><use xlink:href="#e"/></mask><path fill="#FFF" fill-rule="nonzero" mask="url(#f)" d="M-1.93 -1.56L65.86 -1.56 65.86 51.66 -1.93 51.66z"/></g><mask id="h" fill="#fff"><use xlink:href="#g"/></mask><path fill="#33335F" fill-rule="nonzero" mask="url(#h)" d="M-1.24 -1.28L69.85 -1.28 69.85 51.94 -1.24 51.94z"/><path d="M55.81 49.54c-4.27-1-8.87-3.4-13.73-6-6.82-3.54-13.88-7.23-20.53-7.23-5.53 0-19.33 6.21-19.47 6.27a1 1 0 0 1-1.4-.9V8a1 1 0 0 1 .56-.89C1.78 6.85 14.56.65 21.55.65c9.28 0 17.25 4.4 24.29 8.28 8.39 4.63 15 8.28 20.37 2.48a1 1 0 0 1 1.72.67v33.69a1 1 0 0 1-.26.67A10.57 10.57 0 0 1 59.53 50a16.56 16.56 0 0 1-3.72-.46zM21.53 34.33c7.502 0 14.42 3.82 21.45 7.51 9.33 4.89 17.4 9.13 22.94 3.52V14.31a10.46 10.46 0 0 1-9 1.76c-3.72-.8-7.78-3-12.07-5.41-6.83-3.77-14.57-8-23.34-8-5.75 0-16.35 4.81-18.88 6v31.51c3.78-1.62 11.398-5.84 18.9-5.84z" stroke="#33335F" stroke-width="2"/><path d="M37.465 10.511c0-.754-.61-1.363-1.364-1.363-.724 0-1.334.609-1.334 1.363v1.653c-3.712.406-5.336 2.639-5.336 5.22 0 6.989 10.585 5.046 10.585 9.28 0 1.798-1.276 2.668-3.914 2.668-2.002 0-3.538-.986-4.756-2.204-.29-.29-.639-.638-1.276-.638-.841 0-1.538.696-1.538 1.566 0 .29.087.58.233.812.985 1.595 3.19 3.103 6.002 3.451v1.624c0 .754.61 1.363 1.334 1.363.755 0 1.364-.609 1.364-1.363v-1.624c3.885-.377 5.915-2.465 5.915-5.655 0-7.25-10.585-5.481-10.585-9.28 0-1.16.9-2.291 3.306-2.291 1.654 0 3.162.667 4.06 1.537.435.406.841.638 1.247.638.87 0 1.566-.696 1.566-1.537 0-.348-.115-.667-.29-.928-.985-1.392-2.9-2.32-5.22-2.61v-1.682z" fill="#33335F"/></g></svg>