<svg width="76" height="85" viewBox="0 0 76 85" xmlns="http://www.w3.org/2000/svg"><title>icon-benefit-02</title><g fill="none" fill-rule="evenodd"><path d="M44 29.46A1.62 1.62 0 0 1 42.24 31H30.9a1.59 1.59 0 1 1 0-3.16h11.34A1.62 1.62 0 0 1 44 29.46z" fill="#33335F" fill-rule="nonzero"/><path d="M75 53.95a4.93 4.93 0 0 0-4.88-4.29 1.4 1.4 0 0 1-1.37-1.52v-5.39A5.09 5.09 0 0 0 65.66 38a5.24 5.24 0 0 1 6.31-3.7 1.79 1.79 0 0 0 2.15-1.3 1.83 1.83 0 0 0 0-.5 1.76 1.76 0 0 0-.27-1.08 12.69 12.69 0 0 0-10.79-6 12.84 12.84 0 0 0-7 2.16 20.4 20.4 0 0 0-13.89-5.29H30.9a30 30 0 0 0-21.54 8.94c-.35.36-.69.68-1 1.05a1.2 1.2 0 0 0-.51-.14A3.82 3.82 0 0 1 4 28.39v-.33a5.61 5.61 0 0 0 3.44 1.82c.11.033.225.05.34.05h.41c.18.001.358-.04.52-.12a3.85 3.85 0 0 0-.68-7.59h-.24a6.12 6.12 0 0 0-2.37.47 3.23 3.23 0 0 1 2.78-1.6 1.19 1.19 0 1 0 0-2.38 5.62 5.62 0 0 0-5.62 5.62 6.12 6.12 0 0 0 0 .68 6.14 6.14 0 0 0-1 3.39 6.2 6.2 0 0 0 5 6.07 28.87 28.87 0 0 0-5.7 17.67c0 .61 0 1.22.08 1.82A29.54 29.54 0 0 0 13.8 76.08a8 8 0 0 1 3.59 6.67v.19a1.79 1.79 0 0 0 1.79 1.81h10.61A1.86 1.86 0 0 0 31.66 83v-.71a6.62 6.62 0 0 1 6-6.75h.51a6.63 6.63 0 0 1 5.93 3.87c.18.51.249 1.052.2 1.59v2a2.08 2.08 0 0 0 2.1 1.79H57c1 0 1.5-.81 1.5-1.79v-6.81a5.94 5.94 0 0 1 5.93-6 10.68 10.68 0 0 0 10.66-10.7v-4.74a5.38 5.38 0 0 0-.09-.8zM7.83 24.57a1.503 1.503 0 1 1 .2 3 3.23 3.23 0 0 1-2.77-1.94 3.78 3.78 0 0 1 2.57-1.06zm64.11 34.91a7.1 7.1 0 0 1-7.09 7.12 9.52 9.52 0 0 0-9.5 9.54v4.66h-7.1v.2a7.35 7.35 0 0 0-.73-3.16 10.49 10.49 0 0 0-9.33-5.9h-.07c-.24 0-.48-.18-.72-.16a10.21 10.21 0 0 0-9.33 9h-7.2a11.42 11.42 0 0 0-5-7.85 25.8 25.8 0 0 1-11.22-19 25.66 25.66 0 0 1 7.32-20.44 26.57 26.57 0 0 1 19-8h11.27A17.08 17.08 0 0 1 54.67 31a1.79 1.79 0 0 0 2.53.14h.07a9.19 9.19 0 0 1 11.33-.26 8.89 8.89 0 0 0-6.68 8.6 1.83 1.83 0 0 0 1.79 1.84l.19-.05a1.67 1.67 0 0 1 1.72 1.49v5.39a5 5 0 0 0 4.94 5.09 1.3 1.3 0 0 1 1.18.72c.132.246.2.52.2.8v4.72z" fill="#33335F" fill-rule="nonzero"/><path d="M71.75 53.95a1.3 1.3 0 0 0-1.18-.72 5 5 0 0 1-4.94-5.09v-5.39a1.67 1.67 0 0 0-1.72-1.49l-.19.05a1.83 1.83 0 0 1-1.79-1.84 8.89 8.89 0 0 1 6.68-8.6 9.19 9.19 0 0 0-11.33.26h-.07a1.79 1.79 0 0 1-2.54-.13 17.08 17.08 0 0 0-12.43-5.48H30.9a26.57 26.57 0 0 0-19 8A25.66 25.66 0 0 0 4.48 52c0 .66 0 1.31.11 2a25.8 25.8 0 0 0 11.22 19 11.42 11.42 0 0 1 5 7.85h7.2a10.21 10.21 0 0 1 9.33-9c.24 0 .48.16.72.16h.07a10.49 10.49 0 0 1 9.33 5.9 7.35 7.35 0 0 1 .73 3.16v-.18h7.11v-4.66a9.52 9.52 0 0 1 9.5-9.54 7.1 7.1 0 0 0 7.09-7.12v-4.82a1.69 1.69 0 0 0-.14-.8zM8 53.16A1.17 1.17 0 0 1 6.79 52a22.92 22.92 0 0 1 .33-4.25 1.192 1.192 0 1 1 2.35.4 20.79 20.79 0 0 0-.3 3.82A1.16 1.16 0 0 1 8 53.16zM17.45 70a1.19 1.19 0 0 1-1.68.2 23.63 23.63 0 0 1-7.65-10.7 1.192 1.192 0 0 1 2.25-.79 21.24 21.24 0 0 0 6.88 9.63 1.19 1.19 0 0 1 .2 1.66zm24.79-39H30.9a1.59 1.59 0 1 1 0-3.16h11.34a1.59 1.59 0 1 1 0 3.16zm19.48 17.31a2 2 0 1 1 0-4 2 2 0 0 1 0 4z" fill="#FFF" fill-rule="nonzero"/><circle fill="#33335F" fill-rule="nonzero" cx="61.72" cy="46.32" r="1.99"/><path d="M9.47 48.15a20.79 20.79 0 0 0-.3 3.82A1.16 1.16 0 0 1 8 53.16 1.17 1.17 0 0 1 6.79 52a22.92 22.92 0 0 1 .33-4.25 1.192 1.192 0 1 1 2.35.4zM17.45 70a1.19 1.19 0 0 1-1.68.2 23.63 23.63 0 0 1-7.65-10.7 1.192 1.192 0 0 1 2.25-.79 21.24 21.24 0 0 0 6.88 9.63 1.19 1.19 0 0 1 .2 1.66z" fill="#33335F" fill-rule="nonzero"/><path d="M37 19.83c-5.429 0-9.83-4.401-9.83-9.83S31.571.17 37 .17s9.83 4.401 9.83 9.83c-.006 5.426-4.404 9.824-9.83 9.83z" fill="#33335F"/><path d="M37.813 4.177a.677.677 0 0 0-.678-.677.674.674 0 0 0-.663.677V5C34.627 5.2 33.82 6.31 33.82 7.593c0 3.474 5.26 2.508 5.26 4.612 0 .894-.633 1.326-1.945 1.326-.994 0-1.758-.49-2.363-1.095-.145-.144-.318-.317-.635-.317a.772.772 0 0 0-.648 1.181c.49.793 1.585 1.543 2.983 1.716v.807c0 .374.303.677.663.677a.677.677 0 0 0 .678-.677v-.807c1.93-.188 2.94-1.226 2.94-2.81 0-3.604-5.26-2.725-5.26-4.613 0-.576.446-1.138 1.642-1.138.822 0 1.571.331 2.018.763.216.202.418.317.62.317a.772.772 0 0 0 .634-1.225c-.49-.691-1.441-1.153-2.594-1.297v-.836z" fill="#FFF"/></g></svg>